<svg width="16" height="16" viewBox="0 0 32 30" fill="none" xmlns="http://www.w3.org/2000/svg">
<path d="M16 29.43C15.779 29.4293 15.5645 29.3555 15.39 29.22C9.83 24.9 6 21.18 3.32 17.51C-0.100003 12.82 -0.880003 8.49 0.999997 4.64C2.34 1.89 6.19 -0.36 10.69 0.95C12.8355 1.56974 14.7075 2.89878 16 4.72C17.2925 2.89878 19.1645 1.56974 21.31 0.95C25.8 -0.34 29.66 1.89 31 4.64C32.88 8.49 32.1 12.82 28.68 17.51C26 21.18 22.17 24.9 16.61 29.22C16.4354 29.3555 16.2209 29.4293 16 29.43V29.43ZM8.13 2.58C7.05925 2.53833 5.99737 2.78905 5.05834 3.30525C4.11931 3.82145 3.3386 4.58364 2.8 5.51C1.25 8.69 1.95 12.23 4.94 16.32C8.11757 20.4186 11.8384 24.0654 16 27.16C20.1609 24.0685 23.8817 20.425 27.06 16.33C30.06 12.23 30.75 8.69 29.2 5.52C28.2 3.52 25.2 1.93 21.86 2.87C20.789 3.1865 19.7962 3.72372 18.9454 4.44708C18.0946 5.17043 17.4047 6.06391 16.92 7.07C16.8447 7.25341 16.7165 7.41028 16.5518 7.52069C16.3871 7.63109 16.1933 7.69003 15.995 7.69003C15.7967 7.69003 15.6029 7.63109 15.4382 7.52069C15.2735 7.41028 15.1453 7.25341 15.07 7.07C14.589 6.06139 13.9002 5.16583 13.0489 4.44202C12.1976 3.71821 11.2029 3.1825 10.13 2.87C9.47997 2.6812 8.80688 2.5836 8.13 2.58V2.58Z" fill="#901C1C"/>
</svg>
