<svg width="16" height="16" viewBox="0 0 36 36" fill="none" xmlns="http://www.w3.org/2000/svg">
<path d="M33 7.64C31.66 4.89 27.8 2.64 23.31 3.95C21.1645 4.56974 19.2925 5.89878 18 7.72C16.7075 5.89878 14.8355 4.56974 12.69 3.95C8.19 2.66 4.34 4.89 3 7.64C1.12 11.49 1.9 15.82 5.32 20.51C8 24.18 11.83 27.9 17.39 32.22C17.5657 32.357 17.7822 32.4315 18.005 32.4315C18.2278 32.4315 18.4443 32.357 18.62 32.22C24.17 27.91 28.01 24.22 30.69 20.51C34.1 15.82 34.88 11.49 33 7.64V7.64Z" fill="#901C1C"/>
</svg>
